<svg xmlns="http://www.w3.org/2000/svg" viewBox="0 0 90.98 100"><g fill-rule="evenodd"><path d="M22.8 28.3A37.32 37.32 0 1 1 3 77.21 37.3 37.3 0 0 1 22.8 28.3" fill="#0131b9"/><path d="M30.76 41C1.66 54 1.27 84.61 28.88 99 19 82.51 29.7 65.69 39.64 62.09L69 49.69a28.36 28.36 0 0 0 3.87-1.76c9.34-5.27 13-18.62 6.47-26.86-.05 0-36.22 14.4-48.58 19.93z" fill="#1a85f8" opacity=".8"/><path d="M29.09 46.11l1-.46 50.15-21.2A19.72 19.72 0 0 0 89.73 0L22.8 28.3A37.31 37.31 0 0 0 28.88 99a29.22 29.22 0 0 1 .21-52.91" fill="#2ddaff" opacity=".8"/></g></svg>