<svg xmlns="http://www.w3.org/2000/svg" viewBox="0 0 46.48 50.36"><defs><linearGradient id="a36991fb4-657c-4181-ae09-cff63fa267ff" y1="25.18" x2="46.48" y2="25.18" gradientUnits="userSpaceOnUse"><stop offset="0" stop-color="#fd9248"/><stop offset=".49" stop-color="#fa1768"/><stop offset=".99" stop-color="#f001ff"/></linearGradient></defs><path d="M25.59 1.13a12 12 0 0 1 13.17 2c2.33 2.27 4.63 4.58 6.91 6.9a2.58 2.58 0 0 1 .06 3.68c-3.8 3.83-7.61 7.63-11.42 11.44C38 29.08 42 32.82 45.77 36.7a2.55 2.55 0 0 1-.15 3.68C43.33 42.69 41 45 38.7 47.28a12 12 0 0 1-15.36.56c-2.11-1.8-3.92-3.91-6-5.76-1.56 1.56-3.11 3.14-4.68 4.69a2.6 2.6 0 0 1-3.35.41A30.65 30.65 0 0 1 1.74 15 30.05 30.05 0 0 1 9.07 3.43a2.4 2.4 0 0 1 3.44 0C14.16 5 15.76 6.7 17.39 8.32c2.71-2.41 4.87-5.57 8.2-7.19zm.63 5.62c-1.78 1.68-3.49 3.45-5.2 5.19l9.66 9.66c3.23-3.21 6.44-6.45 9.68-9.66-1.7-1.77-3.36-3.54-5.21-5.21a6.81 6.81 0 0 0-8.93.02zM10.82 9a26.21 26.21 0 0 0-5.4 12 25.51 25.51 0 0 0 5.48 20.4l3-3a21.58 21.58 0 0 1 0-26.38C12.89 11 11.88 9.94 10.82 9zm6.68 6.67a16.47 16.47 0 0 0 .06 19.09c3.18-3.16 6.33-6.35 9.51-9.5q-4.71-4.9-9.57-9.62zM21 38.43c1.74 1.75 3.44 3.54 5.24 5.23a6.76 6.76 0 0 0 8.82 0c1.8-1.7 3.5-3.49 5.26-5.24l-9.67-9.67C27.47 32 24.24 35.21 21 38.43z" fill="url(#a36991fb4-657c-4181-ae09-cff63fa267ff)"/></svg>