<svg xmlns="http://www.w3.org/2000/svg" viewBox="0 0 52.2 47.48"><defs><linearGradient id="a285e52a4-02cb-4d13-bdbe-0dcefe84fb91" y1="23.74" x2="52.2" y2="23.74" gradientUnits="userSpaceOnUse"><stop offset="0" stop-color="#2e02cb"/><stop offset=".47" stop-color="#fc51fa"/><stop offset=".99" stop-color="#2cd4ff"/></linearGradient></defs><path d="M10.62 1.23c.59-.55 1.14-1.4 2.07-1.2h37.1c-5.49 5.55-11 11-16.54 16.59q9.48 9.47 19 18.94c-3.61 3.69-7.3 7.29-10.91 11-.44.36-.83 1-1.46.91H2.37C7.88 42 13.4 36.41 18.94 30.87Q9.52 21.36 0 11.93C3.47 8.3 7.1 4.82 10.62 1.23zM19 7.16V21.3c1.54-1.58 3.13-3.11 4.66-4.7 1.65 1.53 3.19 3.18 4.82 4.73 1.54-1.57 3.11-3.13 4.67-4.68-1.56-1.6-3.14-3.17-4.73-4.73 1.51-1.63 3.13-3.16 4.69-4.74-4.67-.02-9.38 0-14.11-.02zm0 23.71q2.34 2.37 4.7 4.72c-1.54 1.58-3.15 3.1-4.65 4.72h14.08V26.19c-1.56 1.54-3.12 3.09-4.65 4.67-1.6-1.58-3.16-3.19-4.78-4.74-1.53 1.62-3.14 3.14-4.7 4.75z" fill="url(#a285e52a4-02cb-4d13-bdbe-0dcefe84fb91)"/></svg>