<svg xmlns="http://www.w3.org/2000/svg" viewBox="0 0 93.91 100"><g fill-rule="evenodd"><path d="M43.42.85A7.71 7.71 0 0 1 47 0h.44c3.77 4.89 6 9.34 6 15.49L47 12 35 5.45zm50.49 61.64L81.92 69l-6.49 3.53c5.66 3.09 10.89 3.47 17.27 2.82.08-.11.15-.23.23-.35a6.55 6.55 0 0 0 1-3.31zM12 82.06V62C6.34 65 3.39 69.11.78 74.64c.07.12.13.24.21.36a7.15 7.15 0 0 0 2.55 2.46z" fill="#c76400"/><path d="M56.17 40V14.36C56 9.77 55.09 5.61 52.08 1.71l12.4 6.75A6.36 6.36 0 0 1 66 9.64a6.83 6.83 0 0 1 2.14 4.72v15.22a6.69 6.69 0 0 1-1 3.31 7.15 7.15 0 0 1-2.55 2.46zm-4.58 31.74a6.63 6.63 0 0 0 1 3.31 7.17 7.17 0 0 0 2.55 2.47l14 7.6a7.7 7.7 0 0 0 3.53.85 7.6 7.6 0 0 0 1.87-.23 6.94 6.94 0 0 0 1.87-.67l12.4-6.75c-5.09.51-9.39-.8-13.67-3L51.59 62.54zM24.65 42.91a7.78 7.78 0 0 0-7.07 0l-14 7.61a7 7 0 0 0-3.28 4.1 6 6 0 0 0-.3 1.86V70c2.08-4.41 5.43-7.26 9.58-9.66l23.53-12.8z" fill="#f19b10"/><path d="M90.38 22.54A7.06 7.06 0 0 1 92.93 25c.07.12.14.24.2.37C90.53 30.88 87.58 35 81.92 38V17.94zM59 94.55L47 88l-6.53-3.5c0 6.15 2.28 10.6 6.05 15.49H47a7.67 7.67 0 0 0 3.53-.85zM0 37.51L12 31l6.48-3.53C12.83 24.39 7.59 24 1.22 24.65c-.08.11-.16.23-.23.35a6.69 6.69 0 0 0-1 3.31z" fill="#0362ab"/><path d="M60.81 52.49L84.33 39.7c4.15-2.41 7.5-5.26 9.58-9.66v13.48a5.9 5.9 0 0 1-.31 1.86 6.29 6.29 0 0 1-.73 1.62 7 7 0 0 1-2.54 2.46l-14 7.61a7.8 7.8 0 0 1-7.08 0zM29.29 64.65a7.07 7.07 0 0 0-2.55 2.46 6.59 6.59 0 0 0-1 3.31v15.21a6.89 6.89 0 0 0 2.13 4.72 6.41 6.41 0 0 0 1.56 1.18l12.39 6.75c-3-3.9-3.95-8.06-4.08-12.65V60.05zm13-36.39a6.52 6.52 0 0 0-1-3.31 7 7 0 0 0-2.56-2.46l-14-7.61a7.77 7.77 0 0 0-5.41-.62 6.64 6.64 0 0 0-1.87.68L5.12 21.68c5.09-.51 9.39.8 13.68 3l23.52 12.8z" fill="#0387d2"/></g></svg>