<svg xmlns="http://www.w3.org/2000/svg" viewBox="0 0 193.49 193.52"><defs><linearGradient id="aa7b27901-8ffe-4b15-8123-cf5ff3a611cf" y1="96.76" x2="193.49" y2="96.76" gradientUnits="userSpaceOnUse"><stop offset="0" stop-color="#30f9ce"/><stop offset=".49" stop-color="#8b30e8"/><stop offset=".99" stop-color="#32a4ff"/></linearGradient></defs><path d="M96.24 193.52V98.93c-2.56.3-3.43 2.1-4.65 3.31Q71.75 122 52 141.77c-1 1-1.95 3-3.45 2.49-2-.64-1.11-2.87-1.12-4.39-.07-12 0-24-.07-36 0-1.59.49-3.29-1-5.57-6.29 6.41-12.59 12.49-18.47 19-3.12 3.43-5.2 3.41-8.32 0-5.7-6.1-11.67-11.92-17.69-17.67-2.53-2.42-2.49-4.1 0-6.51Q11.62 83.78 21 74c2.14-2.23 3.58-2.26 5.69-.06C33 80.56 39.43 87 46 93.71c1.94-2 1.3-3.89 1.31-5.56.07-11.82.12-23.65 0-35.48a10.72 10.72 0 0 1 3.43-8.39c14-13.82 27.83-27.77 41.76-41.63 1.11-1.1 2.09-3.27 3.89-2.48s1.09 3 1.09 4.56q.06 41.24.06 82.46c0 1.91-.57 4 .68 5.82 2.09-.31 3-2.07 4.23-3.3 13-12.92 25.92-25.9 38.92-38.82 1-1 1.81-3 3.49-2.26s.9 2.66.91 4v42.64c7.26-7.42 13.66-13.62 19.62-20.22 3.13-3.46 5.13-3.42 8.27 0 5.74 6.25 11.87 12.14 18 18 2.32 2.23 2.46 3.8.06 6.1Q182.18 108.39 173 118c-2.53 2.65-4.27 2.83-6.87.07-6.27-6.61-12.8-13-20.35-20.57v43.75c0 2.24-.34 4.2-2.05 5.9Q121.1 169.68 98.5 192.3a14.13 14.13 0 0 1-2.26 1.22z" fill="url(#aa7b27901-8ffe-4b15-8123-cf5ff3a611cf)"/></svg>