<svg xmlns="http://www.w3.org/2000/svg" viewBox="0 0 180.95 181.61"><defs><linearGradient id="ad372b56c-4772-44bc-8ab5-4831f030971e" y1="90.8" x2="180.95" y2="90.8" gradientUnits="userSpaceOnUse"><stop offset="0" stop-color="#278cff"/><stop offset=".49" stop-color="#4ad8b9"/><stop offset=".99" stop-color="#5ef084"/></linearGradient></defs><path d="M.1 129.51c0-13.33-.1-26.66 0-40C.53 43.12 36.91 4 83.2 1c31.1-2 62.28-.35 93.43-.75 3.21-.05 4.31 1.24 4.3 4.48-.14 31.16.29 62.33-.31 93.47-.72 37.25-31.56 72.5-70.1 81.2a79.89 79.89 0 0 1-18.31 2.13c-11.67-.09-23.33 0-35 0-7.61 0-7.64 0-7.65-7.89v-70a152.19 152.19 0 0 1 .68-17C52.13 70.5 61.14 59.61 76 53.22c3.92-1.68 5-.19 4.93 3.65-.12 12.49.16 25-.13 37.49-.11 4.73 1.59 6 6.07 5.94 12.33-.23 24.66-.11 37-.06 6 0 6.42.81 4.09 6.41a40.52 40.52 0 0 1-37.22 24.89c-11 .1-9.76-1.46-9.82 9.87-.05 8.88 0 8.88 9 8.83 29.45-.18 52.62-18.82 58.77-47.31 1.14-5.27.69-10.62 1-15.94.21-4.07-1.29-5.59-5.48-5.52-12.83.2-25.66-.07-38.49.15-4.25.07-5.8-1-5.69-5.6.34-13.16.12-26.33.15-39.49 0-2.64.05-4.85-3.72-5-33.36-1.6-58 19.33-64 47.42a62.4 62.4 0 0 0-1 12.93v72.48c0 3.49-.18 7-.39 10.48-.41 6.72-.44 6.72-7.35 6.73-6.16 0-12.34-.17-18.49.06-3.85.14-5.21-1.07-5.15-5.11.14-15.68.01-31.35.02-47.01z" fill="url(#ad372b56c-4772-44bc-8ab5-4831f030971e)"/></svg>