<svg xmlns="http://www.w3.org/2000/svg" viewBox="0 0 60.73 50.35"><defs><linearGradient id="a35912364-f05b-4e0e-a222-1cbb5699af94" x1="14.52" y1="25.17" x2="60.73" y2="25.17" gradientUnits="userSpaceOnUse"><stop offset="0" stop-color="#22bbfe"/><stop offset=".48" stop-color="#812eff"/><stop offset=".99" stop-color="#f95595"/></linearGradient></defs><path d="M28.09 1.12a25.23 25.23 0 0 1 28.52 37.94c.92 3.29 1.78 6.59 2.66 9.89l-9.92-2.66a24.74 24.74 0 0 1-13.84 4.05 25.24 25.24 0 0 1-21-11.13h18.22v5.51c5.59-7.4 11.12-14.83 16.7-22.24-3.72-.05-7.44 0-11.16 0V5.67C37 7.5 35.52 9.32 34.19 11.19H14.57A25.33 25.33 0 0 1 28.09 1.12z" fill="url(#a35912364-f05b-4e0e-a222-1cbb5699af94)"/><path d="M0 22.42c1.35-1.91 2.8-3.74 4.17-5.63h25.76c-1.54 1.82-2.66 4.12-4.51 5.6-8.42.09-16.95.04-25.42.03z" fill="#812eff"/><path d="M9.79 28h22.68l.25.24c.07 1.77 0 3.55 0 5.32H5.64C7 31.71 8.43 29.87 9.79 28z" fill="#22bbfe"/></svg>