<svg xmlns="http://www.w3.org/2000/svg" viewBox="0 0 46.33 42.59"><path d="M5.4.17c2.3-.3 4.69 0 7-.09 1.37.07 2.84-.36 4.12.26C12.93.39 9.31.22 5.69.41c1.52 3.18 3.55 6.08 5.16 9.2-1.71 3.15-3.7 6.14-5.26 9.39 1.78.06 3.57 0 5.35 0 .85 1.6 1.77 3.15 2.66 4.72 1.71 3.28 3.87 6.28 5.27 9.6-1.76 3.08-3.49 6.19-5.35 9.21-1.81-3.13-3.64-6.24-5.41-9.39.77-1.61 1.89-3 2.58-4.68A20.21 20.21 0 0 0 9 25.22C6 20 2.88 14.85 0 9.58 1.7 6.39 3.57 3.28 5.4.17z" fill="#87ebff"/><path d="M29.81 4.82l.09.18c1.81 3.14 3.83 6.18 5.34 9.49-1.81 3.13-3.58 6.27-5.43 9.38-1.61-3.3-3.71-6.31-5.35-9.59.85-1.56 1.75-3.1 2.65-4.64s1.89-3.16 2.7-4.82zM10.85 9.61h10.88c-1.83 3.12-3.56 6.3-5.45 9.38H5.59c1.56-3.24 3.55-6.23 5.26-9.38z" fill="#0a36ef"/><path d="M35.24 14.47a92 92 0 0 1 10.89 0q-2.64 4.68-5.36 9.29h-5.41c-1.83 3.1-3.57 6.25-5.43 9.33-1-1.54-1.87-3.13-2.75-4.72.87-1.51 1.72-3 2.63-4.5 1.85-3.13 3.62-6.27 5.43-9.4zM18.87 33.32a79.89 79.89 0 0 1 10.94 0c-1.74 3.13-3.54 6.22-5.35 9.31-3.65 0-7.3.06-10.94 0 1.86-3.12 3.59-6.23 5.35-9.31z" fill="#0a36ef"/><path d="M5.69.41C9.31.22 12.93.39 16.54.34c.7 1.57 1.65 3 2.47 4.5 3.6.08 7.2.11 10.8 0-.81 1.66-1.74 3.24-2.7 4.8H10.85C9.24 6.49 7.21 3.59 5.69.41zM29.9 5c3.63-.18 7.28-.06 10.91-.07 1.84 3.19 3.69 6.36 5.52 9.55h-.2a92 92 0 0 0-10.89 0C33.73 11.16 31.71 8.12 29.9 5zM13.6 23.73h10.9q1.32 2.31 2.68 4.62c.88 1.59 1.78 3.18 2.75 4.72l.13.23h-.25a79.89 79.89 0 0 0-10.94 0c-1.4-3.3-3.56-6.3-5.27-9.57z" fill="#87ebff"/></svg>