<svg xmlns="http://www.w3.org/2000/svg" viewBox="0 0 68.26 49.5"><defs><linearGradient id="af92839f2-f70c-446e-bac8-cd13b4d6c389" y1="24.75" x2="68.26" y2="24.75" gradientUnits="userSpaceOnUse"><stop offset="0" stop-color="#2be8f7"/><stop offset=".47" stop-color="#6f05da"/><stop offset=".99" stop-color="#cd1ede"/></linearGradient></defs><path d="M30.44 0h9.2c3.06 0 4.36 2.14 2.9 5-1 1.86-2 3.68-3.11 5.44a6 6 0 0 0 0 6.86c3.14 5.27 6.19 10.59 9.22 15.92 1.73 3 .46 5.24-3 5.33-2.72.07-5.44 0-8.15 0-1.51 0-4 2.67-4 4.13 0 .71.48.79 1 .79 4.39 0 8.82.29 13.16-.2 5.86-.65 8.61-6.5 5.74-11.86-2.66-5-5.54-9.83-8.47-14.66-1.22-2-1.36-3.74 0-5.79 1.85-2.86 3.47-5.88 5.14-8.85A3.85 3.85 0 0 1 53.69 0c3.63.07 7.25 0 10.88 0 3.29.05 4.6 2.16 3 5-1.75 3.18-3.66 6.26-5.44 9.42a4.34 4.34 0 0 1-4.48 2.4c-1.31-.1-2.64 0-4 0s-1.7.49-1 1.73c1.88 3.19 3.74 6.38 5.51 9.62 5.49 10.07-.47 20.73-12 21.19-5.84.24-11.71.1-17.56 0-3.33-.05-4.58-2.37-3-5.26 1-1.77 1.91-3.57 3-5.26 1.54-2.33 1.35-4.52 0-6.84-2.86-4.79-5.63-9.62-8.41-14.46-.79-1.54-2.19-3.21-1.04-5.19s3.16-1.4 4.92-1.44c2.3-.05 4.6 0 6.9 0 1.26 0 3.82-3.05 3.7-4.26C34.59 5.88 34 6 33.56 6c-4.32 0-8.66-.21-13 .09a7.64 7.64 0 0 0-6.06 11.22c2.71 5.19 5.68 10.24 8.71 15.25a5.25 5.25 0 0 1-.14 6.19c-1.77 2.76-3.35 5.63-5 8.48a4 4 0 0 1-3.75 2.2c-3.49 0-7 .07-10.46 0C.13 49.27-1 47.16.9 43.82c1.71-3 3.51-6 5.22-9.06a3.66 3.66 0 0 1 3.72-2.13c1.53.09 3.07 0 4.6 0s1.85-.46 1-1.83c-2-3.42-4.08-6.83-5.91-10.35C6.75 15.06 7.22 9.8 11 5a13.17 13.17 0 0 1 10.41-5h9.03z" fill="url(#af92839f2-f70c-446e-bac8-cd13b4d6c389)"/></svg>