<svg xmlns="http://www.w3.org/2000/svg" viewBox="0 0 180.92 181.46"><defs><linearGradient id="aa2df8052-6b71-4aeb-ae93-1d0bf5704ea5" x1="26.36" y1="154.85" x2="146.24" y2="34.97" gradientUnits="userSpaceOnUse"><stop offset="0" stop-color="#2ef0ff"/><stop offset=".49" stop-color="#2340fe"/><stop offset=".99" stop-color="#f001ff"/></linearGradient></defs><path d="M113.61 34.23c0 9.33.19 18.67-.07 28-.13 4.35 1.28 5.79 5.69 5.75 18.49-.21 37 0 55.48-.18 4.86-.06 6.32 1.58 6.2 6.32-.28 11.49-.21 23 0 34.48.07 4.07-1.3 5.77-5.44 5.63-5.66-.18-11.33 0-17 0-2.33 0-4.19.52-5.22 3s.12 4.1 1.74 5.7c4.38 4.34 8.66 8.78 13.11 13.05 2 1.94 2 3.4 0 5.37q-13.51 13.33-26.85 26.86c-2.23 2.27-3.89 2.45-6.17.05-4.24-4.47-8.75-8.68-13.09-13.05-1.5-1.52-2.88-2.56-5.23-1.58s-3.2 2.55-3.16 5c.09 5.83-.11 11.66.05 17.49.11 3.74-1.13 5.45-5.15 5.4q-18-.26-36 0c-3.83.05-5.46-1.27-5.32-5.21.2-5.66 0-11.33.07-17 .06-2.76-.56-4.67-3.43-5.85s-4 .42-5.55 2c-4.24 4.24-8.56 8.41-12.67 12.77-2 2.13-3.53 2.48-5.73.24q-13.5-13.71-27.22-27.21c-2.11-2.07-1.67-3.53.24-5.37 4.2-4 8.25-8.24 12.37-12.37 1.77-1.77 3.68-3.35 2.3-6.42s-3.82-2.79-6.31-2.81c-5.5 0-11-.08-16.49 0-3.31 0-4.79-1.25-4.76-4.75Q.2 90.7 0 72c0-3 1.11-4.15 4.09-4.09 6 .11 12 0 18 0 2.6 0 4.41-.63 5.49-3.26s-.18-4.1-1.79-5.65c-4.36-4.34-8.61-8.81-13.09-13.05-2.33-2.21-1.8-3.77.22-5.76q13.52-13.4 26.85-26.92c2.16-2.2 3.72-2.06 5.77.08 4.26 4.46 8.72 8.72 13 13.11 1.62 1.64 3.11 2.77 5.66 1.61s3-2.77 3-5.15c0-5.83.13-11.67 0-17.49C67.08 1.65 68.37 0 72.35 0c12 .14 24 .17 36 0 4.3-.07 5.41 1.84 5.34 5.75-.19 9.49-.08 18.99-.08 28.48zM98.39 69.11h-8.48c-12.6.29-21.44 9.49-21.31 22.15a21.83 21.83 0 0 0 43.65.27c.15-6.15-.06-12.31.08-18.46.07-2.93-.77-4.3-4-4.06s-6.61.1-9.94.1z" fill="url(#aa2df8052-6b71-4aeb-ae93-1d0bf5704ea5)"/></svg>