<svg xmlns="http://www.w3.org/2000/svg" viewBox="0 0 34.24 46.65"><path d="M19.14 9.67c.11-.12.22-.22.34-.33 4.8 2.81 9.85 5.18 14.74 7.85v9.85l-.11.09q-4.56-2.43-9.16-4.79c-1.81-1-3.69-1.87-5.46-2.92-.56-3.16.07-6.53-.35-9.75z" fill="#822ce7"/><path d="M.05 19.63l.18-.18c3 1.66 6 3.18 9 4.78 1.87 1 3.73 2 5.62 2.9.1 3.29.07 6.58 0 9.87a7.69 7.69 0 0 1-1.55-.61c-4.03-2.2-8.15-4.32-12.3-6.45-.45-.27-1.15-.53-1-1.2 0-3.04 0-6.07.05-9.11z" fill="#fbc957"/><path d="M16.53 10.83a7.71 7.71 0 0 1 2.24-.83c-3 4.82-6.3 9.5-9.5 14.21-3-1.6-6.06-3.12-9-4.78 5.26-3.09 10.84-5.7 16.26-8.6zM24.94 22.34q4.61 2.36 9.16 4.79c-3.44 2.13-7.17 3.76-10.73 5.67-2.7 1.32-5.21 3-8.07 4 3.07-4.91 6.43-9.64 9.64-14.46z" fill="#25cbf1"/><path d="M0 11.56C7.46 7.68 14.87 3.74 22.37 0v7.82c-.95.53-1.95 1-2.88 1.52-.12.11-.23.21-.34.33l-.37.35a7.71 7.71 0 0 0-2.24.81c-5.42 2.9-11 5.51-16.3 8.62l-.18.18C0 16.94 0 14.25 0 11.56z" fill="#fbc957"/><path d="M34.1 27.13l.11-.09v7.55c.1.58-.6.72-.95 1Q22.56 41.1 11.9 46.67v-7.83a37.82 37.82 0 0 0 3.41-2c2.86-1 5.37-2.67 8.07-4 3.55-1.95 7.28-3.58 10.72-5.71z" fill="#822ce7"/></svg>