<svg xmlns="http://www.w3.org/2000/svg" viewBox="0 0 48.64 50.43"><defs><linearGradient id="a29cd3a09-ac8b-4bfe-a99c-3d34b09426e9" x1="4.18" y1="36.84" x2="44.45" y2="13.59" gradientUnits="userSpaceOnUse"><stop offset="0" stop-color="#4ffcc4"/><stop offset=".47" stop-color="#fdc344"/><stop offset=".99" stop-color="#e50825"/></linearGradient></defs><path d="M14.72.35a2.49 2.49 0 0 1 2.7.6c1.77 1.71 3.45 3.51 5.24 5.21a2.45 2.45 0 0 0 3.32 0c1.94-1.82 3.73-3.81 5.68-5.61a2 2 0 0 1 2.8.12c1.92 1.84 3.79 3.74 5.66 5.63a2.14 2.14 0 0 1 0 3.13c-1.86 1.9-3.73 3.8-5.65 5.64a2 2 0 0 1-2.81.12c-2-1.81-3.74-3.8-5.68-5.62a2.53 2.53 0 0 0-3.54.17q-4.7 4.69-9.39 9.41a2.39 2.39 0 0 0-.05 3.4c.84 1.05 2.23 2.45 3.66 1.45 2.28-1.9 4.16-4.22 6.37-6.19a2 2 0 0 1 2.81.21c1.93 1.83 3.73 3.79 5.67 5.62a2.05 2.05 0 0 0 2.9.08c2-1.89 3.86-3.94 5.88-5.82a2 2 0 0 1 2.56-.16 15.35 15.35 0 0 1 5.46 8.72 14.7 14.7 0 0 1-3.79 13.24q-4.79 4.84-9.63 9.64a2.45 2.45 0 0 1-3.45.29c-1.87-1.7-3.59-3.63-5.44-5.35a2.44 2.44 0 0 0-3.32 0C20.73 46.1 19 48.07 17 49.88a2 2 0 0 1-2.83-.08c-1.92-1.83-3.78-3.74-5.65-5.63a2.17 2.17 0 0 1 0-3.17c1.87-1.89 3.74-3.79 5.66-5.64a2 2 0 0 1 2.8-.08c1.94 1.82 3.76 3.77 5.68 5.6a2.51 2.51 0 0 0 3.54-.2c3.14-3.13 6.28-6.25 9.4-9.41a2.34 2.34 0 0 0 .22-3.16c-.89-1.1-2.29-2.66-3.84-1.74-2.27 1.9-4.16 4.22-6.37 6.19a2 2 0 0 1-2.82-.17c-1.94-1.82-3.72-3.81-5.67-5.62a2 2 0 0 0-2.88-.13c-2 1.88-3.86 3.95-5.9 5.82a2 2 0 0 1-2.56.22A15.23 15.23 0 0 1 0 21.87a14.66 14.66 0 0 1 4.13-11.21C7 7.76 9.86 5 12.69 2.06A8.1 8.1 0 0 1 14.72.35z" fill="url(#a29cd3a09-ac8b-4bfe-a99c-3d34b09426e9)"/></svg>