<svg xmlns="http://www.w3.org/2000/svg" viewBox="0 0 181.53 181.58"><defs><linearGradient id="a70b9b178-e68e-40f0-abf4-3873d64ae516" x1="37.05" y1="144.72" x2="180.13" y2="1.64" gradientUnits="userSpaceOnUse"><stop offset="0" stop-color="#278cff"/><stop offset=".49" stop-color="#ef4bed"/><stop offset=".99" stop-color="#f98962"/></linearGradient></defs><path d="M142.44 35.36c-9.61-9.57-18.83-18.68-27.92-27.91-1.79-1.81-5.46-3.51-4.48-5.94s4.82-1.13 7.37-1.14c19.16-.1 38.33.07 57.49-.14 5-.05 6.63 1.48 6.56 6.58-.26 20.33-.09 40.66-.15 61 0 1.51.95 3.74-1.09 4.39-1.5.47-2.44-1.45-3.47-2.47-9-8.93-17.91-17.9-26.89-26.83-1.15-1.15-2.06-2.63-3.86-3.18-1.22 1.65-.61 3.53-.61 5.26q-.06 64.74 0 129.48c0 7.11 0 7.12-7.21 7.12h-59c-7 0-7.07 0-7.07-7.36v-58c0-6.61 0-6.63-6.7-6.64-19.67 0-39.33-.13-59 .09-4.77.06-6.43-1.41-6.38-6.24C.2 83.27.07 63.11.1 43c0-6.25.42-6.63 7-6.64h128.48c1.93-.07 3.96.34 6.86-1z" fill="url(#a70b9b178-e68e-40f0-abf4-3873d64ae516)"/></svg>