<svg xmlns="http://www.w3.org/2000/svg" viewBox="0 0 157.35 179.34"><defs><linearGradient id="a2cf38d78-4ad3-4661-a23b-efd56a6cc5b4" y1="89.67" x2="157.35" y2="89.67" gradientUnits="userSpaceOnUse"><stop offset="0" stop-color="#4bb3f8"/><stop offset=".49" stop-color="#2340fe"/><stop offset=".99" stop-color="#fd9bc4"/></linearGradient></defs><path d="M.07 134.27c0-13.33.12-26.66-.07-40 0-3.67 1.26-5.75 4.42-7.5C14.75 81 24.88 74.93 35.2 69.15a6.78 6.78 0 0 0 3.93-6.76c-.15-11.83 0-23.66-.12-35.48 0-3.61 1.17-5.81 4.35-7.58q15.7-8.77 31.13-18c2.78-1.66 4.92-1.78 7.75-.09 10.43 6.24 21.06 12.15 31.52 18.35 2.6 1.55 4.65 1.64 7.31.05 10.44-6.23 21.06-12.15 31.52-18.36 3.4-2 4.76-1.45 4.74 2.57q-.09 18.49 0 37c0 3-1.35 4.93-3.93 6.39-10.86 6.17-21.7 12.38-32.45 18.74-2.7 1.59-4.83 1.25-7.37-.25-10.5-6.23-21.11-12.19-31.58-18.4-2.43-1.45-4.3-1.62-6.82-.12q-15.45 9.21-31.13 18a6.52 6.52 0 0 0-3.72 6.41c.09 11.5.13 23 0 34.49 0 4.58 1.68 4.1 4.69 2.33 9.47-5.59 19.12-10.88 28.47-16.65 3.62-2.24 6.39-2.14 10 0 9.82 6 19.94 11.43 29.77 17.39 3.16 1.92 5.53 1.79 8.62-.07 10.13-6.1 20.49-11.81 30.64-17.87 3.67-2.2 4.91-1.59 4.87 2.71q-.16 18 0 36c0 3.61-1.47 5.81-4.57 7.55-10.46 5.86-20.88 11.81-31.16 18-3.19 1.91-5.65 1.63-8.7-.19-10.16-6.05-20.52-11.75-30.66-17.84-2.84-1.7-4.92-1.57-7.71.06-22.92 13.37-45.88 26.56-68.82 39.8-5.41 3.12-5.68 3-5.69-3.08Q0 154.26.07 134.27z" fill="url(#a2cf38d78-4ad3-4661-a23b-efd56a6cc5b4)"/></svg>