<svg xmlns="http://www.w3.org/2000/svg" viewBox="0 0 208.18 181.08"><defs><linearGradient id="a82072242-1b25-4333-9017-6b7c833ccad5" y1="90.54" x2="208.18" y2="90.54" gradientUnits="userSpaceOnUse"><stop offset="0" stop-color="#22bbfe"/><stop offset=".48" stop-color="#812eff"/><stop offset=".99" stop-color="#f95595"/></linearGradient></defs><path d="M104.17 96.69a221.57 221.57 0 0 0-10.36-28.85c-1.24-2.75 1.45-3.74 2.82-5.22 6.58-7.1 8.89-15.13 5.25-24.37a22.19 22.19 0 0 0-42.85 8c-.1 12.75 9.23 22.26 21.78 22.54 3 .07 6.39-1.94 8.74-.25 3.12 2.26 3.77 6.56 5.1 10.11a111.74 111.74 0 0 1 7.59 40c0 10.5.07 21 0 31.5 0 2.94.71 4.79 3.53 6.38 6 3.35 8.16 9.32 6.33 15.29a13.14 13.14 0 0 1-25.17-.23c-1.69-6.2.47-11.58 6.62-15.19a5.67 5.67 0 0 0 3.17-5.6c-.08-10-.12-20 0-30 0-3.38-1.07-4.84-4.6-4.76-7.5.17-15 .13-22.5 0-3.18 0-4.52 1.12-4.45 4.38.14 6.83.1 13.67 0 20.5a6.75 6.75 0 0 0 2.63 5.55c4.2 3.74 4.46 9.21 1 12.78a8.58 8.58 0 0 1-12.5.05c-3.64-3.63-3.42-8.89.7-12.79 1.37-1.29 2.73-2.37 2.66-4.5-.3-9.47.73-19-.82-28.43-1.39-8.48-4.75-16-10.8-22.07-2.25-2.27-3.48-4.3-2.56-7.85a10.27 10.27 0 0 0-5.83-12.46A10.67 10.67 0 0 0 26 86.5c2.53 4.25 7.21 6.28 12.56 4.69 2.73-.81 4.31-.17 6.12 1.67a40.62 40.62 0 0 1 10.69 18.91c.68 2.65.15 4.36-2.91 4.28-7.81-.2-15.68.88-23.43-.73C12 111.78-.26 97.1 0 80.68c.27-16.86 12.32-30.89 29.53-34.13 3.39-.64 4.89-1.87 5.47-5.63C40.8 3.55 81.55-12.46 111 11a7.67 7.67 0 0 0 7.25 1.76c21.92-5.06 41.11 8.39 43.8 30.72.39 3.27 1.38 3.69 4.35 3.23 21.43-3.32 40.06 10.79 41.71 31.43 1.67 20.84-14.78 37.9-36.65 38h-15c-3.15 0-4.17-1.56-3.48-4.48 1.89-7.86 6.22-14.27 11.82-20 1.88-1.91 3.63-.61 5.52-.2 5.94 1.3 11.9-2.25 13.24-7.78a10.77 10.77 0 1 0-21-4.75 4.25 4.25 0 0 0-.22 2.45c2.7 5.53-.82 8.72-4.05 12.45-9.63 11.11-9.85 24.63-9.16 38.31.1 2 1.65 2.71 2.91 3.79 5.22 4.47 5.61 11.18 1 15.74-4.44 4.38-10.81 4.1-15-.65a10 10 0 0 1 2-15.25c3.17-2.21 2.92-4.9 2.89-7.85-.15-13.69 1.67-11.63-11.53-11.78-6.66-.08-13.33-.15-20 0-4.12.11-5.43-1.13-5-5.55 1.62-17.74 7.28-34.11 15.49-49.77 1.34-2.55 2.89-3.37 5.81-3.49 6.16-.25 10.17-4.84 10.21-10.79 0-5.29-3.35-9.58-8.22-10.43-6.09-1.07-11.23 2-12.89 7.58-1 3.49 0 6.57 1.89 9.45.94 1.41 2 2.74 1 4.57-6.57 12.41-12.13 25.17-15.52 38.98z" fill="url(#a82072242-1b25-4333-9017-6b7c833ccad5)"/></svg>