<svg xmlns="http://www.w3.org/2000/svg" viewBox="0 0 430.61 444.09"><path d="M214.23 312.43c-36.1 0-90.15 0-126.28-.28a21 21 0 0 1-13-5.24c-21.81-21.28-43.26-43-64.72-64.75-13.48-13.63-13.69-23.59-.07-37.36C48.22 166.36 86.59 128.28 124.82 90c30-30 59.89-60.13 89.63-90l66.63 67.09c-16.39 16.25-33.3 33-50.14 49.76-33.13 33.06-66.11 66.39-99.45 99.2-5.55 5.49-6 8.67 0 14.54 26 25.3 57.12 56.22 82.74 81.84" fill="#fbc64d"/><path d="M221.4 134.94s84 0 121.2.28a20.69 20.69 0 0 1 12.79 5.45c22.12 21.49 43.79 43.43 65.56 65.27 12.68 12.76 13 22.33.24 35.22Q366.92 296.09 312 350.61c-29.63 29.66-59.4 59.16-88.83 89-5.55 5.66-9.12 6.18-14.85.28-17-17.48-34.45-34.67-51.89-51.82-4.61-4.51-5.2-7.94 0-12.93 17.93-17.48 35.47-35.33 53-53.15l13.21-13.21q37.53-37.14 74.85-74.39c10.48-10.49 10.48-11.15 0-21.46-23.62-23.71-52.43-54.3-76.13-78" fill="#258bfa"/></svg>