<svg xmlns="http://www.w3.org/2000/svg" viewBox="0 0 68.02 60.39"><defs><linearGradient id="a6e7ef314-3d1f-481b-b201-5e64ea22a14c" y1="30.19" x2="68.02" y2="30.19" gradientUnits="userSpaceOnUse"><stop offset="0" stop-color="#e732ec"/><stop offset=".49" stop-color="#f7db53"/><stop offset=".99" stop-color="#7afbf6"/></linearGradient></defs><path d="M25 0h5.86c2.46 0 3 1 1.85 3.12-1.63 2.93-3.32 5.81-5 8.73C26.52 14.05 27 15 29.52 15c3.83.05 7.66 0 11.5 0a3 3 0 0 0 2.86-1.69c2.17-3.75 4.46-7.5 6.61-11.31a3.39 3.39 0 0 1 3.34-2c3.9.08 7.81 0 11.71 0 2.38 0 3 .94 1.86 3-1.93 3.54-4 7-6 10.55a3 3 0 0 1-2.91 1.61h-11.5c-2.79 0-3.23.86-1.83 3.29 1.92 3.31 3.79 6.66 5.74 10a3.09 3.09 0 0 1-.06 3.5c-1.86 3.11-3.65 6.26-5.44 9.41-.49.87-1.5 1.74-.83 2.83s1.9.63 2.91.64c3.55 0 7.11.06 10.66 0a3.43 3.43 0 0 1 3.38 2c1.87 3.34 3.85 6.62 5.75 10 1.39 2.44.78 3.56-2 3.59H53.56a3.09 3.09 0 0 1-3-1.78c-2.08-3.7-4.29-7.34-6.34-11.06a3.74 3.74 0 0 0-3.81-2.26c-3.55.13-7.1 0-10.66 0-2.91 0-3.35.8-1.87 3.4s3.16 5.42 4.69 8.15c1.3 2.31.68 3.44-1.94 3.47H18.71a3 3 0 0 1-2.84-1.72Q8.33 45.41.63 32.23a3.64 3.64 0 0 1 0-4.08Q8.36 14.88 16 1.55A2.81 2.81 0 0 1 18.73 0H25zm9 30.12c-.27-.57-.49-1.15-.8-1.68q-2.91-5.09-5.87-10.14c-1.11-1.91-2.15-1.91-3.32.07-2 3.29-3.84 6.64-5.8 9.93a3.2 3.2 0 0 0 0 3.69c1.92 3.16 3.72 6.38 5.56 9.59 1.39 2.44 2.36 2.48 3.76.08 2-3.37 3.89-6.76 5.83-10.15.25-.4.41-.86.64-1.37z" fill="url(#a6e7ef314-3d1f-481b-b201-5e64ea22a14c)"/></svg>