<svg xmlns="http://www.w3.org/2000/svg" viewBox="0 0 53.34 50.35"><defs><linearGradient id="a69a1530a-8b43-4be8-9b9c-e574d2e0b0e3" y1="25.17" x2="53.34" y2="25.17" gradientUnits="userSpaceOnUse"><stop offset="0" stop-color="#f8cd24"/><stop offset=".49" stop-color="#eb00de"/><stop offset=".99" stop-color="#33bffd"/></linearGradient></defs><path d="M14.51 0h29.16c1.58 2.83 3.26 5.6 4.83 8.43-1.64 2.79-3.28 5.57-4.84 8.4q4.88 8.37 9.68 16.76l-9.65 16.74H14.5Q7.27 37.76 0 25.23C4.81 16.82 9.71 8.45 14.51 0zM9.73 25.23C13 30.8 16.17 36.4 19.42 42h19.19l.26-.17c1.64-2.69 3.14-5.46 4.75-8.16q-2.4-4.21-4.85-8.4C37.21 28 35.55 30.78 34 33.59h-9.78C21 28 17.76 22.41 14.56 16.82c3.17 0 6.35-.05 9.53 0 1.93 2.59 3.26 5.61 5 8.34Q34 16.81 38.75 8.42H19.42C16.19 14 12.93 19.6 9.73 25.23z" fill="url(#a69a1530a-8b43-4be8-9b9c-e574d2e0b0e3)"/></svg>