<svg xmlns="http://www.w3.org/2000/svg" viewBox="0 0 50.07 42.46"><path d="M6.67 10.31l.15.12a30.12 30.12 0 0 0 5.62 3.35v.21c-.14 4.78 0 9.56-.06 14.34 4 2.53 8.2 4.75 12.27 7.17l.37.36c.09 2.12-.22 4.27.23 6.37v.23C16.85 40.15 8.42 37.92 0 35.68c2-8.51 4.49-16.9 6.67-25.37z" fill="#175bec"/><path d="M37.71 13.71C41.9 11.49 46 9 50.07 6.66c-2.07 8.08-4.31 16.12-6.43 24.19-.11 1.19-1.36 1.48-2.21 2C36 36 30.63 39.14 25.21 42.23c-.45-2.1-.14-4.25-.23-6.37l.21-.25c3.86-2.16 7.66-4.42 11.51-6.59.39-.3 1.09-.52 1-1.15.04-4.72-.06-9.44.01-14.16z" fill="#198efb"/><path d="M23.83.57c.52-.24 1.06-.76 1.69-.5q12.29 3.27 24.55 6.59C46 9 41.9 11.49 37.71 13.71l-.17.1C33.41 11.33 29.2 9 25 6.55c-4.23 2.34-8.38 4.83-12.59 7.23a30.12 30.12 0 0 1-5.62-3.35C12.47 7.11 18.18 3.89 23.83.57z" fill="#198efb"/><path d="M12.44 13.78c4.21-2.4 8.36-4.89 12.56-7.23 4.2 2.45 8.41 4.78 12.54 7.26-4 2.63-8.34 4.75-12.32 7.42-.12 4.79 0 9.59 0 14.38l-.21.25-.37-.36c.17-4.77.27-9.56 0-14.33-2.56-2-5.59-3.33-8.35-5A38.77 38.77 0 0 0 12.4 14z" fill="#87ebff"/><path d="M37.54 13.81l.17-.1c-.07 4.72 0 9.44 0 14.16.11.63-.59.85-1 1.15-3.85 2.17-7.65 4.43-11.51 6.59 0-4.79-.09-9.59 0-14.38 4-2.67 8.33-4.79 12.34-7.42z" fill="#87ebff"/></svg>