<svg xmlns="http://www.w3.org/2000/svg" viewBox="0 0 180.3 181.44"><defs><linearGradient id="a9e4d2293-971d-41af-b0c1-b91f22aafc5e" y1="90.72" x2="180.3" y2="90.72" gradientUnits="userSpaceOnUse"><stop offset="0" stop-color="#4cf37b"/><stop offset=".49" stop-color="#2340fe"/><stop offset=".99" stop-color="#f001ff"/></linearGradient></defs><path d="M114.92 113.88V97.06c0-17.49-.06-35 0-52.48 0-3.44-.82-5.18-4.73-5.15-22.33.13-44.65.07-67 .09a19 19 0 0 0-2.41.45c5.87 5.87 11.33 11.32 16.77 16.78 6.92 6.94 6.9 6.94 0 13.8Q31.49 96.7 5.33 122.85c-1.14 1.13-2.22 3.27-3.87 2.73-2.1-.69-1.32-3.14-1.32-4.86-.05-25.49 0-51-.08-76.47a11.71 11.71 0 0 1 3.56-8.93q16.49-16.38 32.83-32.9A8.17 8.17 0 0 1 42.74 0q34.48.06 69 0a9.25 9.25 0 0 1 7.06 3q16.35 16.52 32.87 32.87a8.57 8.57 0 0 1 2.75 6.64c-.09 10.16-.13 20.33 0 30.49a10.16 10.16 0 0 1-3.36 7.92c-10.56 10.41-20.94 21-31.53 31.38-2.43 2.38-2.63 3.78 0 6.33q29.55 29.1 58.81 58.48c.89.89 2.47 1.66 1.87 3.2s-2.31 1-3.56 1c-20.82 0-41.65 0-62.48.07-3.75 0-5-1.7-5-5.15.06-9.5-.14-19 .09-28.49.09-3.57-1.1-4.64-4.55-4.57q-13.74.27-27.49 0c-3.7-.06-5 1.37-4.91 5 .16 9.16-.08 18.33.11 27.49.08 3.93-1 5.74-5.33 5.71-20.5-.15-41-.06-61.48-.08-1.28 0-3 .48-3.66-.88-.89-1.77 1-2.63 2-3.59Q45.72 135 87.57 93c2.79-2.81 4.44-2.27 6.85.23 6.34 6.62 12.88 13.01 20.5 20.65z" fill="url(#a9e4d2293-971d-41af-b0c1-b91f22aafc5e)"/></svg>