<svg xmlns="http://www.w3.org/2000/svg" viewBox="0 0 106.19 100"><path d="M41.2 1.34v22.22a31.85 31.85 0 0 0-20 29.53v1.21H0v-1.21a53 53 0 0 1 10.24-31.36q1.38-1.87 2.93-3.65A53.17 53.17 0 0 1 41.2 1.34z" fill="#fdd365"/><path d="M62.94.92V54.3H41.8l-.6-.77V1.34A52.91 52.91 0 0 1 53.09 0a52.38 52.38 0 0 1 9.85.92z" fill="#1775e2"/><path d="M106.19 53.09v1.21H84.91v-1.21a31.84 31.84 0 0 0-22-30.28V.92a52.9 52.9 0 0 1 28.96 15.91 49 49 0 0 1 4.07 4.9 52.9 52.9 0 0 1 10.25 31.36z" fill="#0ce0a8"/><path d="M46.26 76l-5 6.57-13.33 17.28A53.36 53.36 0 0 1 5.2 76z" fill="#7b51fb"/><path d="M101 76a53.18 53.18 0 0 1-23 24L64.39 82.86 62.94 81 59 76z" fill="#f1b192"/></svg>