<svg xmlns="http://www.w3.org/2000/svg" viewBox="0 0 193.35 193.98"><defs><linearGradient id="a9047b8db-0a8e-4972-9728-7b9d89780f7f" x1="96.67" y1="193.98" x2="96.67" gradientUnits="userSpaceOnUse"><stop offset="0" stop-color="#30f9ce"/><stop offset=".49" stop-color="#d630ca"/><stop offset=".99" stop-color="#f9d342"/></linearGradient></defs><path d="M125.72 57.91c21.24.19 38 7.6 51.81 21.73 4.43 4.52 8.73 9.2 13.43 13.42 3.33 3 3 4.93 0 8q-39 38.71-77.79 77.7-6.72 6.7-13.44 13.41c-1.36 1.31-2.73 2.83-4.63.83-11.16-11.58-24.28-21.52-30.91-36.9-1.39-3.21-4.22-6.75-3.14-9.74 1.3-3.63 5.86-1.34 8.87-1.55 24.33-1.74 44.08-11.89 59-31.23 1.5-2 3.34-2.36 5.62-2.53 6.91-.51 11.59-4.36 13-10.43A14.36 14.36 0 0 0 124.38 86c-4.51 3.83-6.49 10.68-3.64 16.32 2.08 4.12 1 6.65-1.7 9.65-26.89 30.5-72.42 32.19-101.45 3.68C12.24 110.36 7.05 105 1.64 99.76c-2.18-2.1-2.19-3.59 0-5.75Q47.81 48 93.87 1.8C95.58.1 97-1 99.2 1.34c6.9 7.22 14.18 14.1 20.93 21.46 5.33 5.82 9 12.81 11.68 20.22 2.06 5.6 1.6 6.35-4.44 6.3-23-.18-42.09 8.52-57.78 25.11A36.47 36.47 0 0 0 65.74 79a7.62 7.62 0 0 1-6.59 3.64c-7 .36-11.68 4.69-13.23 11.51a14.55 14.55 0 0 0 6.51 15A15.05 15.05 0 0 0 69.29 108c4.56-3.85 6.59-11.25 3.6-16.88-2-3.81-.91-6.09 1.46-8.76 14.05-15.82 31.54-24.09 51.37-24.45zm3.28 13.7h-6.48c-1.19 0-2.57.21-2.67 1.67-.12 1.94 1.58 1.86 2.85 1.91 2.82.1 5.65 0 8.48.08 12.79.25 21.81 7.69 23.5 19.38 1.49 10.27-5 19.23-16.88 23.26-1.29.44-3.48.38-3 2.51.42 1.91 2.27 1.51 3.76 1.26 12.27-2 22-16 19.76-28.21C155.56 79 145.62 71.59 129 71.61zM63.8 122h7.27c1.21 0 2.48-.35 2.31-1.94-.13-1.2-1.24-1.47-2.27-1.49-3.15-.06-6.31 0-9.47-.1-11.64-.17-21.22-7.64-22.76-17.77-1.74-11.45 4.45-20.88 16.19-24.62 1.54-.49 3.86-.56 3.3-2.8s-2.74-1.17-4.23-.83c-9.24 2.12-15.37 7.9-18.06 16.82s-1.08 17.51 5.41 24.61c5.92 6.46 13.51 8.8 22.31 8.12z" fill="url(#a9047b8db-0a8e-4972-9728-7b9d89780f7f)"/></svg>