<svg xmlns="http://www.w3.org/2000/svg" viewBox="0 0 29.93 46.68"><path d="M4.4 12.66l.06.06a47.49 47.49 0 0 0 3.84 3.8c1.27 2.34 2.34 4.92 2.06 7.64 0 2.07-1.12 3.88-1.79 5.79-1.38 1.33-2.87 2.54-4.23 3.9A15 15 0 0 1 1.9 16a19.47 19.47 0 0 1 2.5-3.34zM25.54 12.75l.12-.13a18.63 18.63 0 0 1 3.86 7.23 15.16 15.16 0 0 1-4.09 14.23 28.08 28.08 0 0 0-3.73-3.9c-1.17-2.11-2.28-4.38-2.17-6.86-.11-2.46 1-4.7 2.13-6.8 1.27-1.29 2.64-2.45 3.88-3.77z" fill="#2ae5cf"/><path d="M19.12 3.94c.36-1.94 2.26-2.88 4-3.23 4.78 1.52 6.18 8.54 2.53 11.91l-.12.13c-1.37-1.37-2.73-2.74-4.12-4.08s-2.95-2.76-2.29-4.73zM2.2 39.23a7.65 7.65 0 0 1 2.08-5.32c1.88 1.7 3.62 3.54 5.42 5.32a3.62 3.62 0 0 1 .52 4.77c-.76 1.29-2.32 1.59-3.63 2a7.3 7.3 0 0 1-4.39-6.77z" fill="#1059fe"/><path d="M14.91 2.23A7.17 7.17 0 0 1 23.13.71c-1.75.35-3.65 1.29-4 3.23-.66 2 1 3.51 2.3 4.73s2.75 2.71 4.12 4.08c-1.24 1.32-2.61 2.48-3.88 3.77a11 11 0 0 1-13.36 0 47.49 47.49 0 0 1-3.84-3.8c3.44-3.53 6.97-6.99 10.44-10.49zM8.57 30a11 11 0 0 1 13.13.23 28.08 28.08 0 0 1 3.73 3.9c-3.55 3.43-7 7-10.5 10.44A7.41 7.41 0 0 1 6.59 46c1.31-.42 2.87-.72 3.63-2a3.62 3.62 0 0 0-.52-4.75c-1.8-1.78-3.54-3.62-5.42-5.32l.06-.06C5.7 32.49 7.19 31.28 8.57 30z" fill="#fc62db"/></svg>