<svg xmlns="http://www.w3.org/2000/svg" viewBox="0 0 55.74 49.1"><defs><linearGradient id="acd17f5dc-9af9-491e-94e1-25ba42943235" x1="20.09" y1="24.98" x2="55.74" y2="24.98" gradientUnits="userSpaceOnUse"><stop offset="0" stop-color="#fdaf42"/><stop offset=".47" stop-color="#fc51fa"/><stop offset=".99" stop-color="#2cd4ff"/></linearGradient></defs><path d="M32 1.89A18.58 18.58 0 0 1 36.16 0a3.17 3.17 0 0 1-.81 1.48Q27.42 9.22 19.52 17a2.13 2.13 0 0 0-.36 3q3.84 6.64 7.71 13.3C25 36.68 23 40 21.13 43.34 20 45.26 19 47.28 17.65 49.1a7.14 7.14 0 0 1-1.28-1.62C11 38.06 5.49 28.7.13 19.27c-.46-.56.44-.93.81-1.16Q16.48 10 32 1.89z" fill="#2cd4ff"/><path d="M33.43 5.41A33.62 33.62 0 0 0 37.74.87c6 5.91 12.08 11.69 18 17.66C50.41 28.07 44.82 37.46 39.41 47a7.66 7.66 0 0 1-1.59 2.12c-2.89-4.45-5.35-9.18-8.07-13.74-3.21-5.6-6.5-11.16-9.66-16.79C24.5 14.14 29 9.8 33.43 5.41z" fill="url(#acd17f5dc-9af9-491e-94e1-25ba42943235)"/></svg>