<svg xmlns="http://www.w3.org/2000/svg" viewBox="0 0 66.62 68.18"><defs><linearGradient id="a00e22483-4a46-4a0f-9d09-2d40f708efae" y1="34.09" x2="66.62" y2="34.09" gradientUnits="userSpaceOnUse"><stop offset="0" stop-color="#4bb3f8"/><stop offset=".49" stop-color="#2340fe"/><stop offset=".99" stop-color="#fd9bc4"/></linearGradient></defs><path d="M66.61 22.64a11.71 11.71 0 0 1-4.9 9.36c-2.29 1.74-2.28 2.51 0 4.26 7 5.41 6.49 14.86-1.1 19.34-6.89 4.07-13.89 8-20.81 12a3.5 3.5 0 0 1-3.91 0Q19.16 57.9 2.41 48.23c-3.21-1.86-3.21-3.47 0-5.38 3.78-2.24 7.59-4.38 11.39-6.61 2.34-1.38 2.31-3 0-4.35Q8 28.55 2.17 25.22C-.66 23.58-.74 21.76 2 20.15c11.2-6.52 22.43-13 33.63-19.51a3.8 3.8 0 0 1 4.27 0c6.85 4 13.75 8 20.63 11.92a11.54 11.54 0 0 1 6.08 10.08zm-48.51-.07c0 2.44-.06 4.89 0 7.32.09 2.23 1.45 3 3.37 1.92q6.31-3.54 12.53-7.23c2.08-1.25 2.05-2.73 0-3.95Q27.82 17 21.64 13.5c-2-1.14-3.44-.35-3.52 2s-.02 4.7-.02 7.07zm0 22.94c0 2.43-.06 4.87 0 7.3.07 2.2 1.43 3 3.35 1.95q6.36-3.57 12.61-7.33C36 46.29 36 44.74 34 43.58q-6-3.63-12.24-7.07c-2.32-1.28-3.59-.5-3.66 2.12-.05 2.29-.01 4.59 0 6.88zM38.11 34v7.09c.05 2.56 1.25 3.27 3.48 2 4-2.28 8.08-4.62 12.11-7 2.08-1.21 2.1-2.91 0-4.13q-6.21-3.63-12.48-7.16c-1.89-1.06-3.07-.36-3.12 1.84-.04 2.49.01 4.92.01 7.36z" fill="url(#a00e22483-4a46-4a0f-9d09-2d40f708efae)"/></svg>