<svg xmlns="http://www.w3.org/2000/svg" viewBox="0 0 50.38 50.41"><defs><linearGradient id="aea61e6e9-edb5-4442-bca6-b69898a1866e" y1="25.21" x2="50.38" y2="25.21" gradientUnits="userSpaceOnUse"><stop offset="0" stop-color="#fd9248"/><stop offset=".49" stop-color="#fa1768"/><stop offset=".99" stop-color="#f001ff"/></linearGradient></defs><path d="M23.19 1.15C23.71.67 24.22 0 25 0c1-.17 1.71.62 2.35 1.24 5.43 5.46 10.88 10.88 16.32 16.32.81.71 1.39 2 .61 2.94-1.41 1.66-3.06 3.09-4.57 4.65 3.34 3.41 6.76 6.72 10.09 10.14a2.06 2.06 0 0 1 0 2.9c-3.74 3.78-7.53 7.52-11.28 11.3a2.3 2.3 0 0 1-2.29.84A14.54 14.54 0 0 1 34 48.61a14.33 14.33 0 0 0-15.08-1.55 21.07 21.07 0 0 0-4.21 3 2.14 2.14 0 0 1-2.88-.63C8.11 45.72 4.4 42.05.73 38.33a2 2 0 0 1-.19-2.9C3.86 32 7.41 28.68 10.7 25.16c-1.4-1.45-2.87-2.82-4.26-4.28a2 2 0 0 1 0-3q8.39-8.35 16.75-16.73zM10.78 19.44c1 .93 1.92 1.88 2.86 2.85 2-2 3.94-4 5.94-5.93a8.15 8.15 0 0 1 8-1.9c2.58.74 4.36 2.91 6.1 4.8v.3c-.85.88-1.66 2.17-2.83 2.52-1.62-1.18-2.65-3.25-4.7-3.75a4.15 4.15 0 0 0-4.07 1.34Q13.53 28.22 5 36.77c2.88 2.92 5.81 5.81 8.7 8.73a18.61 18.61 0 0 1 23 0l8.71-8.72c-2.89-2.88-5.76-5.78-8.67-8.65-2 2-4 4.08-6.07 6.06a8.26 8.26 0 0 1-9.07 1.29c-2.06-1-3.44-3-5.09-4.51 1-1 1.94-1.94 2.92-2.9 1.7 1.47 3 3.87 5.46 4.12 1.81.2 3.24-1.11 4.37-2.35q5.16-5.19 10.35-10.35C34.93 14.54 30 9.84 25.24 5Q18 12.17 10.78 19.44z" fill="url(#aea61e6e9-edb5-4442-bca6-b69898a1866e)"/></svg>