<svg xmlns="http://www.w3.org/2000/svg" viewBox="0 0 421 423.44"><path d="M275.26 143.79c.71-2.53-2.26-3.7-3.82-5.14a148.76 148.76 0 0 0-71.74-36.53A197.83 197.83 0 0 0 84 113.06 180.34 180.34 0 0 0 2.91 178.2c-.47.77-1.06 1.42-1.85 2.47A4.66 4.66 0 0 1 0 179c.29-1.88.62-3.8.94-5.68A211.76 211.76 0 0 1 209.23 0C326.19 0 421 94.81 421 211.76a211.78 211.78 0 0 1-69.3 156.68 166 166 0 0 1-49.26-11.39 141.62 141.62 0 0 1-82-93.2c-3.94-14.71-3.5-29.74-2.94-44.68 1.2-28 13.2-49.47 36.5-64.7a44.4 44.4 0 0 1 5.26-2.94l2.18-1.06" fill="#cfe2f3" opacity=".8"/><path d="M302.44 357.05a141.62 141.62 0 0 1-82-93.2c-3.94-14.71-3.5-29.74-2.94-44.68 1.2-28 13.2-49.47 36.5-64.7a44.4 44.4 0 0 1 5.26-2.94l2.18-1.06 13.82-6.68a2.52 2.52 0 0 0 0-1.3c-3-.82-7.08-1.81-7.83-2.05-26.68-5.12-55-5.32-82.15-3.59-33.17 2.06-65 10-94.12 27.35C52 187.5 25.59 222.35 6.68 263.7a13 13 0 0 0-.56 7.91c.09.36.17.71.29 1.06s.27.71.41 1.06a1.85 1.85 0 0 1 0 .47A211.7 211.7 0 0 0 53.28 355c78.88 85.77 212.13 91.64 298.25 13.39a165.86 165.86 0 0 1-49.09-11.34z" fill="#0b5394"/></svg>