<svg xmlns="http://www.w3.org/2000/svg" viewBox="0 0 67.93 53.26"><defs><linearGradient id="a633a3ba7-ec70-421e-9414-6e1c7896e002" y1="26.63" x2="67.93" y2="26.63" gradientUnits="userSpaceOnUse"><stop offset="0" stop-color="#fbe20a"/><stop offset=".47" stop-color="#fc23c9"/><stop offset=".99" stop-color="#3579ff"/></linearGradient></defs><path d="M34.78 53.24H30.6c-3 0-4.39-1.07-5.3-4.06-1.2-3.93-2.3-7.89-3.47-11.84-.19-.64-.2-1.67-.94-1.72-1-.07-.89 1.07-1.1 1.74-1.19 3.94-2.29 7.9-3.51 11.83-.93 3-2.39 4-5.52 4.06H2.18c-2.35 0-2.49-.16-1.85-2.35q3.53-12.15 7.1-24.29c1.49-5.08 3-10.17 4.5-15.24.94-3.09 2.45-4.19 5.66-4.24h7.53c2.22 0 2.64-.61 2.13-2.67C26.16 0 26.16 0 30.82 0 33 0 35.14 0 37.3.07c2.86.11 4.37 1.23 5.22 4 1.25 4 2.38 8 3.59 12 .18.61.1 1.62 1 1.57s.86-1 1-1.63c1.09-3.68 2.12-7.37 3.18-11.06S53.92 0 57.81 0H66c1.64 0 2.31.51 1.79 2.27-4 13.36-7.88 26.75-11.85 40.11-.83 2.81-2.15 3.71-5.06 3.75h-7.94c-2.21 0-2.75.79-2.22 2.88 1.06 4.2 1.06 4.2-3.4 4.2zm11.41-30.68c.06-1.72-.88-2-2-2H33.95a2.2 2.2 0 0 1-2.52-1.89c-.61-2.43-1.36-4.82-2.1-7.22-.17-.55-.18-1.42-1-1.4s-.8.88-1 1.44Q24.62 20.71 22 30c-.66 2.31-.16 3 2.2 3 3.34.05 6.68.07 10 0a2.09 2.09 0 0 1 2.36 1.8c.68 2.49 1.44 5 2.17 7.42.15.52.16 1.27.8 1.33.9.1.81-.81 1-1.35 1.82-6.07 3.6-12.15 5.39-18.23.08-.58.21-1.13.27-1.41z" fill="url(#a633a3ba7-ec70-421e-9414-6e1c7896e002)"/></svg>