<svg xmlns="http://www.w3.org/2000/svg" viewBox="0 0 68.4 62.37"><defs><linearGradient id="a6af8313a-b2b2-4283-9f7a-d24f3b69de80" y1="31.18" x2="68.4" y2="31.18" gradientUnits="userSpaceOnUse"><stop offset="0" stop-color="#22bbfe"/><stop offset=".48" stop-color="#812eff"/><stop offset=".99" stop-color="#f95595"/></linearGradient></defs><path d="M54.61 60.6a14.24 14.24 0 0 1-7.91-2.33c-3.62-2.09-7.28-4.13-10.86-6.3a2.73 2.73 0 0 0-3.23 0c-5.58 3.3-11.24 6.47-16.82 9.76a3.39 3.39 0 0 1-4 0C8.45 59.66 5 57.77 1.63 55.85c-1.45-.81-1.48-1.38 0-2.19 2.8-1.49 5.49-3.11 8.21-4.66.82-.48 1.87-.78 1.91-2s-1.09-1.7-2-2.21c-2.46-1.45-4.93-2.9-7.46-4.23a3.88 3.88 0 0 1-2.33-4c.13-6.9 0-13.8.06-20.71 0-11.18 11.29-17.7 21-12.16q5.9 3.31 11.66 6.73a2.82 2.82 0 0 0 3.28 0C41.6 7.1 47.31 3.88 53 .55a3 3 0 0 1 3.48 0c3.4 2.05 6.83 4.06 10.3 6 1.6.89 1.22 1.45-.12 2.15-2.75 1.5-5.45 3.12-8.17 4.67C56 14.82 56 16 58.52 17.53s5.14 3.1 7.79 4.48a3.36 3.36 0 0 1 2.09 3.43c-.09 7.18 0 14.36-.05 21.55A13.58 13.58 0 0 1 54.61 60.6zm-.12-28.73c0-4.24.05-8.49 0-12.73 0-2.21-1.09-2.81-2.93-1.76-3 1.69-5.88 3.46-8.86 5.12a2.72 2.72 0 0 0-1.53 2.7q.06 5.94 0 11.9a2.7 2.7 0 0 0 1.51 2.7q5.1 2.85 10.12 5.85c1.39.83 1.76.49 1.74-1-.09-4.29-.05-8.53-.05-12.78zm-40.55-1.62V43c0 2.3 1.13 2.94 3.07 1.85 2.86-1.6 5.66-3.29 8.51-4.9a3.11 3.11 0 0 0 1.74-3c-.05-3.9 0-7.81 0-11.71a2.71 2.71 0 0 0-1.55-2.68q-5-2.79-9.95-5.74c-1.53-.93-1.89-.44-1.87 1.15.11 4.03.05 8.18.05 12.28z" fill="url(#a6af8313a-b2b2-4283-9f7a-d24f3b69de80)"/></svg>