<svg xmlns="http://www.w3.org/2000/svg" xlink="http://www.w3.org/1999/xlink" viewBox="0 0 66.76 75.11"><defs><linearGradient id="a8f550c83-8281-4965-bc10-0f3460d59ad1" y1="31.15" x2="66.75" y2="31.15" gradientUnits="userSpaceOnUse"><stop offset="0" stop-color="#e732ec"/><stop offset=".49" stop-color="#f7db53"/><stop offset=".99" stop-color="#7afbf6"/></linearGradient><linearGradient id="b57d7d604-11f0-4bac-ab68-8e7a1a81de40" x1="11.61" y1="50.41" x2="66.76" y2="50.41" href="#a8f550c83-8281-4965-bc10-0f3460d59ad1"/></defs><path d="M36.69 23.72H17.88a1 1 0 0 0-1 .51Q13.22 30.64 9.51 37a.92.92 0 0 0 0 1.06q4.11 7.09 8.19 14.19c1.8 3.12 3.62 6.24 5.43 9.36.1.16.28.33.16.52s-.36.12-.55.12A21.68 21.68 0 0 1 7.1 54.88a24.67 24.67 0 0 1-2.94-4.31 32.93 32.93 0 0 1-3-6.09A23.34 23.34 0 0 1 .05 39a22.31 22.31 0 0 1 3.57-13.5 35.52 35.52 0 0 1 3.59-5.33 21.68 21.68 0 0 1 8.52-5.9A22.87 22.87 0 0 1 24 12.83h26.21a1.13 1.13 0 0 1 1.27.78 4.26 4.26 0 0 0 4.8 2.39 4.4 4.4 0 0 0 3.47-4.25 4.41 4.41 0 0 0-3.69-4.28 4.32 4.32 0 0 0-4.71 2.76.87.87 0 0 1-1 .68H27.78c-.24 0-.56.11-.69-.12s.13-.48.25-.69c.82-1.43 1.61-2.86 2.47-4.25A11.51 11.51 0 0 1 40 0h14.82a11.87 11.87 0 0 1 2 23.57 11.49 11.49 0 0 1-1.95.15H36.64z" fill="url(#a8f550c83-8281-4965-bc10-0f3460d59ad1)"/><path d="M45.29 51.4c3.24 0 6.49-.06 9.73 0a11.33 11.33 0 0 1 10.13 6 11.62 11.62 0 0 1-2.07 14.39 11.16 11.16 0 0 1-7.91 3.28H40.11A11.52 11.52 0 0 1 29.64 69C25.8 62.41 22 55.79 18.2 49.19c-2.14-3.71-4.27-7.42-6.43-11.11a.9.9 0 0 1 0-1Q15 31.6 18.09 26.13a.74.74 0 0 1 .71-.43h11.52c.51 0 .54.08.26.56-2.09 3.62-4.17 7.23-6.27 10.84a.81.81 0 0 0 0 .92q5.58 9.61 11.13 19.25c1.21 2.09 2.42 4.18 3.59 6.29a1.23 1.23 0 0 0 1.25.72h10.15a.81.81 0 0 1 .92.62 4.26 4.26 0 0 0 4.55 2.78 4.34 4.34 0 1 0-4.5-6 .84.84 0 0 1-.94.61h-9.2a1 1 0 0 1-1-.54L34.67 52c-.31-.53-.26-.61.37-.61z" fill="url(#b57d7d604-11f0-4bac-ab68-8e7a1a81de40)"/></svg>