<svg xmlns="http://www.w3.org/2000/svg" viewBox="0 0 424 379"><g fill-rule="evenodd"><path fill="#20adee" d="M109 0h83L41.25 270.97.61 194.82 109 0z"/><path fill="#f58220" d="M315.61 377.97h-83L383.36 107 424 183.15 315.61 377.97z"/><path fill="#20adee" d="M53 296.92l2.44-1.59h79.57l2.53 1.67 42.49 81.37h-84L53 296.92z"/><path fill="#0c56a7" d="M186 61l20-33.3 41.98 71.09L137.54 297 53 296.92l24.61-41.1L186 61z"/><path fill="#fdca06" d="M237.98 316.7l-20 33.3L176 278.91 286.44 80.7l.01-1.23 83.3.56 1.23.75-24.61 41.1L237.98 316.7z"/><path fill="#f58220" d="M243.41-.67h84l43.57 81.45-84.54-.08L243.41-.67z"/></g></svg>