<svg xmlns="http://www.w3.org/2000/svg" xlink="http://www.w3.org/1999/xlink" viewBox="0 0 50.36 50.39"><defs><linearGradient id="a7e5f9876-b477-4b3b-b3a2-c3cdef71a4b3" y1="18.98" x2="48.96" y2="18.98" gradientUnits="userSpaceOnUse"><stop offset="0" stop-color="#2cf1ae"/><stop offset=".47" stop-color="#1eaafd"/><stop offset=".99" stop-color="#dd3ffc"/></linearGradient><linearGradient id="bb71f2698-2941-42df-8170-00e4706350e8" x1="1.42" y1="31.44" x2="50.36" y2="31.44" href="#a7e5f9876-b477-4b3b-b3a2-c3cdef71a4b3"/></defs><path d="M7.59 7.21A24.9 24.9 0 0 1 26.67.05 25.28 25.28 0 0 1 49 16.79H30.24c0-2.83.05-5.67 0-8.5a1.65 1.65 0 0 0-2.43-1.39 14.2 14.2 0 0 0-1.76 1.62C20.91 13.7 15.7 18.83 10.58 24a1.64 1.64 0 0 0 1 2.81c7.66.07 15.33 0 23 0Q29 32.39 23.5 38c0-2.07.06-4.16 0-6.24a1.65 1.65 0 0 0-1.84-1.48H4.93A4.84 4.84 0 0 1 0 25.79 24.78 24.78 0 0 1 7.59 7.21z" fill="url(#a7e5f9876-b477-4b3b-b3a2-c3cdef71a4b3)"/><path d="M15.81 23.5c3.65-3.69 7.3-7.38 11-11 .08 2 0 4.11.06 6.16a1.69 1.69 0 0 0 1.84 1.5h16.76a4.83 4.83 0 0 1 4.85 4.48 24.79 24.79 0 0 1-4.28 14.64c.81 3.07 1.67 6.12 2.45 9.2-3.12-.66-6.17-1.62-9.26-2.4A25.18 25.18 0 0 1 1.42 33.6h18.75c0 2.83-.05 5.66 0 8.49a1.64 1.64 0 0 0 2.23 1.46 9.55 9.55 0 0 0 1.67-1.45c5.2-5.27 10.5-10.45 15.68-15.73a1.63 1.63 0 0 0-1.06-2.82c-7.61-.06-15.25.04-22.88-.05z" fill="url(#bb71f2698-2941-42df-8170-00e4706350e8)"/></svg>