<svg xmlns="http://www.w3.org/2000/svg" viewBox="0 0 159.46 180.66"><defs><linearGradient id="a36fbdc27-a6cd-4f8f-890d-0dc35b81d3b3" y1="90.33" x2="159.46" y2="90.33" gradientUnits="userSpaceOnUse"><stop offset="0" stop-color="#30f9ce"/><stop offset=".49" stop-color="#d151d3"/><stop offset=".99" stop-color="#f09810"/></linearGradient></defs><path d="M152.74 122.27c-6.27-3.74-12.65-7.31-19.75-11.41 2-1.18 3.1-1.86 4.23-2.52 28.82-16.87 29.82-58 1.46-75.63C121.15 21.81 103 12 85.09 1.59a10 10 0 0 0-10.84 0c-22.77 13.22-45.6 26.33-68.33 39.6C-2 45.82-1.95 53.12 6 58c5.09 3.16 10.37 6 15.54 9.05 4.89 2.86 4.87 2.89 0 5.92-28.19 17.56-28.79 57.76-.77 75.07 17.42 10.77 35.44 20.57 53.14 30.88 4.2 2.44 8 2.23 12.2-.21 22.16-12.93 44.42-25.69 66.61-38.57 8.98-5.22 9.01-12.5.02-17.87zM89 47.64c.42-6.87 6-11.82 12.76-12.66a14.66 14.66 0 0 1 15 9.24c2.51 6.8.62 13.61-5.52 17.52-7 4.45-14.3 8.4-22.39 13.1.03-9.69-.37-18.48.15-27.2zM70.44 131.9c-.28 6.92-4.48 12.11-10.6 13.35-7.34 1.49-13.62-1.4-16.76-7.7-2.91-5.86-1.84-13.4 3.54-17.18 6.79-4.77 14.19-8.66 21.35-12.88 2.32-1.38 2.5.3 2.52 1.94v12.49c-.02 3.33.09 6.66-.05 9.98zm.12-51.1a7.22 7.22 0 0 1-4.24 7.2c-7.16 3.92-14 8.34-21.28 12.1-10.9 5.67-18.88 13.51-21.17 26.9-9.81-12.76-6.63-30.14 6.32-38.36 5.62-3.64 11.54-6.7 17.22-10.17 8-4.9 7.88-12.3-.25-17.15-5.44-3.24-10.94-6.32-16.45-9.48-2.61-1.47-3.11-2.76-.14-4.46q23.4-13.44 46.72-27c2.63-1.54 4.72-.56 6.26 1.09 2.08 2.24-.91 3.05-2 4-7.86 7.07-11 16-11 26.35-.07 9.65-.14 19.32.01 28.98zm58.64 52.44q-23.41 13.42-46.75 27a4.71 4.71 0 0 1-4.72.33c-2.7-1.24-3.83-2.17-.77-4.62 8.21-6.59 11.83-15.41 11.76-25.87-.06-9.66.18-19.34-.09-29-.13-4.27 1.44-6.69 5.18-8.61 5.77-2.95 11.17-6.65 16.93-9.65 11.86-6.18 22.41-13.43 24.88-29 9.61 13.35 6.45 30.09-6.33 38.34-5.6 3.61-11.54 6.68-17.23 10.15-8 4.89-7.92 12.3.22 17.15 5.58 3.32 11.24 6.52 16.9 9.72 2.51 1.43 2.7 2.53.02 4.06z" fill="url(#a36fbdc27-a6cd-4f8f-890d-0dc35b81d3b3)"/></svg>