<svg xmlns="http://www.w3.org/2000/svg" viewBox="0 0 60.93 68.65"><defs><linearGradient id="a610130ed-4a66-47c6-aa94-becfd147e998" y1="34.32" x2="60.93" y2="34.32" gradientUnits="userSpaceOnUse"><stop offset="0" stop-color="#fc62db"/><stop offset=".47" stop-color="#87ebff"/><stop offset=".99" stop-color="#175bec"/></linearGradient></defs><path d="M41.71 0a19.77 19.77 0 0 1 8 1.45C53.31 3 60.26 13.14 60.22 17.08s-2 7.06-4.46 9.9a2.07 2.07 0 0 0-.18 3.02c1.28 1.82 2.34 3.81 3.62 5.62 2.22 3.14 2.13 6.41.67 9.72-2.13 4.9-5.76 8.56-9.87 11.71-8.79 6.65-18.57 10.85-29.6 11.54-6.13.38-11.7-.94-14.82-7.15A27.3 27.3 0 0 0 3 57.4C.23 53.75.19 50 2.2 46a19.42 19.42 0 0 1 3.17-4.65 1.74 1.74 0 0 0 .19-2.57C4.32 37 3.27 35.12 2 33.39c-2.9-3.92-2.35-7.85-.14-11.76a33.86 33.86 0 0 1 8.4-9.49C19 5.05 32 0 41.71 0zM18.87 44.53c12.76-.62 23.64-5.75 33.21-14 2.27-2 2.2-2.76-.37-4.33A16.93 16.93 0 0 0 41.43 24c-12.86 1-23.84 6.25-33.37 14.8-1.05.94-1.16 1.62 0 2.65 3.13 2.77 6.94 3.01 10.81 3.08z" fill="url(#a610130ed-4a66-47c6-aa94-becfd147e998)"/></svg>