<svg xmlns="http://www.w3.org/2000/svg" xlink="http://www.w3.org/1999/xlink" viewBox="0 0 43.67 53.33"><defs><linearGradient id="a418bb44a-ede0-45ec-89b0-9001acc10bf2" y1="19.38" x2="41.92" y2="19.38" gradientUnits="userSpaceOnUse"><stop offset="0" stop-color="#2ef0ff"/><stop offset=".49" stop-color="#2340fe"/><stop offset=".99" stop-color="#f001ff"/></linearGradient><linearGradient id="b71634601-2e31-4995-83b2-2610b53f963d" x1="1.72" y1="33.95" x2="43.67" y2="33.95" href="#a418bb44a-ede0-45ec-89b0-9001acc10bf2"/></defs><path d="M14.55 0h4.87v4.86h4.82V.02h4.85v6.05a22.13 22.13 0 0 1 12.83 12.08c-1.46.68-2.94 1.3-4.44 1.88a17.63 17.63 0 0 0-8.29-8.64A16.93 16.93 0 0 0 5.08 24.24c2.49.06 5 0 7.47.05a2.51 2.51 0 0 1 2 2.79 7.31 7.31 0 0 0 7.24 6.86 8 8 0 0 0 5.21-2.1c1.14 1.15 2.32 2.27 3.41 3.47a12.35 12.35 0 0 1-8.6 3.44 11.94 11.94 0 0 1-11.44-8.12c-.24-.5-.24-1.17-.72-1.53-2.49-.09-5 .06-7.49-.05A2.39 2.39 0 0 1 0 26.68a21.85 21.85 0 0 1 5-13.91 22.5 22.5 0 0 1 9.52-6.71c.02-2.06 0-4.06.03-6.06z" fill="url(#a418bb44a-ede0-45ec-89b0-9001acc10bf2)"/><path d="M13.24 18a12.36 12.36 0 0 1 8.59-3.45 12 12 0 0 1 11.32 7.8c.28.61.31 1.39.82 1.87 2.5.08 5 0 7.51 0a2.43 2.43 0 0 1 2.19 2.37 22 22 0 0 1-4.83 13.68 22.53 22.53 0 0 1-9.73 7v6h-4.87v-4.85h-4.82v4.86h-4.87v-6.06A22.21 22.21 0 0 1 1.72 35.17c1.47-.66 3-1.28 4.46-1.88a17.41 17.41 0 0 0 8.57 8.78 16.92 16.92 0 0 0 23.83-13h-7.11a2.35 2.35 0 0 1-2.37-2.44 7.36 7.36 0 0 0-4.94-6.84 7.47 7.47 0 0 0-7.51 1.71c-1.15-1.16-2.33-2.27-3.41-3.5z" fill="url(#b71634601-2e31-4995-83b2-2610b53f963d)"/></svg>