<svg xmlns="http://www.w3.org/2000/svg" viewBox="0 0 78.32 100"><path d="M0 23.86v52.9l7.82 6.17V28.8L56.74 5.48A5.47 5.47 0 0 0 48.92.54zM47.18 59.94l-14.09 6.72 7.34 5.16L55 64.88a3.06 3.06 0 0 0 1.74-2.76V34.88l-7.82 3.72v18.58a3.06 3.06 0 0 1-1.74 2.76z" fill="#f7d50d"/><path d="M67.53 29.74v39.93a3.06 3.06 0 0 1-1.74 2.76L51.2 79.38l-7.35-5.16L58 67.49a3.06 3.06 0 0 0 1.74-2.76V33.47zM67.53 13L18.61 36.35v55.12l-7.82-6.18V31.41L59.7 8.09A5.48 5.48 0 0 1 67.53 13z" fill="#db0680"/><path d="M78.32 20.58v55.11a5.47 5.47 0 0 1-3.12 4.94L62 86.94l-7.33-5.16L68.76 75a3.06 3.06 0 0 0 1.74-2.76V26.75a1.54 1.54 0 0 0-2.21-1.39L29.4 43.9V100l-7.82-6.18V39l48.91-23.36a5.48 5.48 0 0 1 7.83 4.94z" fill="#0094cd"/></svg>